<svg width="18" height="19" viewBox="0 0 18 19" fill="none" xmlns="http://www.w3.org/2000/svg">
<path d="M9.00036 14.5C8.9087 14.5001 8.81792 14.4821 8.73324 14.447C8.64857 14.4119 8.57166 14.3604 8.50693 14.2955L1.52778 7.31639C1.25506 7.04368 1.25506 6.60207 1.52778 6.32953C1.80049 6.057 2.24209 6.05682 2.51463 6.32953L9.00036 12.8153L15.4861 6.32953C15.7588 6.05682 16.2004 6.05682 16.4729 6.32953C16.7455 6.60224 16.7457 7.04385 16.4729 7.31639L9.49379 14.2955C9.42906 14.3604 9.35215 14.4119 9.26747 14.447C9.1828 14.4821 9.09202 14.5001 9.00036 14.5Z" fill="black"/>
</svg>
