<svg width="39" height="39" viewBox="0 0 39 39" fill="none" xmlns="http://www.w3.org/2000/svg">
<path fill-rule="evenodd" clip-rule="evenodd" d="M11.5 32C18.1274 32 23.5 26.6274 23.5 20C23.5 13.3726 18.1274 8 11.5 8C4.87258 8 -0.5 13.3726 -0.5 20C-0.5 26.6274 4.87258 32 11.5 32Z" fill="#BDDA13"/>
<mask id="mask0_94_9455" style="mask-type:luminance" maskUnits="userSpaceOnUse" x="-1" y="8" width="25" height="24">
<path fill-rule="evenodd" clip-rule="evenodd" d="M11.5 32C18.1274 32 23.5 26.6274 23.5 20C23.5 13.3726 18.1274 8 11.5 8C4.87258 8 -0.5 13.3726 -0.5 20C-0.5 26.6274 4.87258 32 11.5 32Z" fill="white"/>
</mask>
<g mask="url(#mask0_94_9455)">
<rect x="-0.5" y="8" width="24" height="24" fill="white"/>
</g>
<g clip-path="url(#clip0_94_9455)">
<path d="M19.5 0.000793457C8.73157 0.000793457 0 8.73066 0 19.4999C0 30.2692 8.73072 38.9991 19.5 38.9991C30.2701 38.9991 39 30.2692 39 19.4999C39 8.73066 30.2701 0.000793457 19.5 0.000793457ZM19.5 5.83126C21.2106 5.83115 22.8511 6.51057 24.0608 7.72005C25.2704 8.92953 25.9501 10.57 25.9502 12.2806C25.9503 13.9912 25.2709 15.6317 24.0614 16.8414C22.8519 18.051 21.2114 18.7307 19.5009 18.7308C17.7903 18.7309 16.1497 18.0515 14.9401 16.842C13.7304 15.6325 13.0508 13.992 13.0507 12.2814C13.0506 10.5709 13.73 8.9303 14.9395 7.72066C16.1489 6.51101 17.7894 5.83138 19.5 5.83126ZM19.4957 33.901C16.0787 33.9048 12.7731 32.6858 10.1766 30.4645C9.87439 30.2067 9.6317 29.8864 9.4652 29.5257C9.2987 29.1651 9.21235 28.7726 9.21209 28.3754C9.21209 24.7634 12.1355 21.8726 15.7484 21.8726H23.2534C26.8671 21.8726 29.7793 24.7634 29.7793 28.3754C29.7796 28.7725 29.6935 29.1649 29.5272 29.5255C29.3608 29.8861 29.118 30.2062 28.8157 30.4637C26.2193 32.6859 22.9132 33.9052 19.4957 33.901Z" fill="#F1F1F1"/>
</g>
<defs>
<clipPath id="clip0_94_9455">
<rect width="39" height="39" fill="white"/>
</clipPath>
</defs>
</svg>
