<svg width="39" height="39" viewBox="0 0 39 39" fill="none" xmlns="http://www.w3.org/2000/svg">
<path d="M12.6309 12.2133H13.0191C13.6091 12.2133 14.0873 11.7349 14.0873 11.1451V7.09463C14.0873 6.50482 13.6091 6.02647 13.0191 6.02647H12.6309C12.041 6.02647 11.5627 6.50482 11.5627 7.09463V11.1451C11.5627 11.7349 12.041 12.2133 12.6309 12.2133ZM26.3323 12.1869H26.7205C27.3104 12.1869 27.7887 11.7085 27.7887 11.1186V7.06811C27.7887 6.47835 27.3104 6 26.7205 6H26.3323C25.7423 6 25.264 6.47835 25.264 7.06811V11.1186C25.2641 11.7085 25.7424 12.1869 26.3323 12.1869Z" fill="#302F2F"/>
<path d="M31.3985 8.19727H28.657V11.3984C28.657 12.4662 27.7883 13.0552 26.7206 13.0552H26.3324C25.2645 13.0552 24.3959 12.1864 24.3959 11.1186V8.19727H14.9556V11.145C14.9556 12.2129 14.087 13.0816 13.0191 13.0816H12.6309C11.5631 13.0816 10.6944 12.2129 10.6944 11.145V8.19727H7.7366C6.77905 8.19727 6 8.97632 6 9.93392V30.9184C6 31.876 6.77905 32.6551 7.7366 32.6551H31.3985C32.3561 32.6551 33.1351 31.876 33.1351 30.9184V9.93392C33.1352 8.97637 32.3561 8.19727 31.3985 8.19727ZM31.3985 30.9184H7.73665L7.7366 15.0715H31.3989L31.3998 30.9184L31.3985 30.9184Z" fill="#302F2F"/>
<path d="M20.4637 20.387H23.5818C23.6412 20.387 23.6981 20.3634 23.7401 20.3214C23.7821 20.2794 23.8056 20.2225 23.8056 20.1631V17.4631C23.8056 17.4037 23.7821 17.3468 23.7401 17.3048C23.6981 17.2628 23.6412 17.2393 23.5818 17.2393H20.4637C20.4043 17.2393 20.3474 17.2628 20.3054 17.3048C20.2634 17.3468 20.2398 17.4037 20.2398 17.4631V20.1631C20.2398 20.2225 20.2634 20.2794 20.3054 20.3214C20.3474 20.3634 20.4043 20.387 20.4637 20.387ZM25.5524 20.387H28.6706C28.7299 20.387 28.7869 20.3634 28.8288 20.3214C28.8708 20.2794 28.8944 20.2225 28.8944 20.1631V17.4631C28.8944 17.4037 28.8708 17.3468 28.8288 17.3048C28.7869 17.2628 28.7299 17.2393 28.6706 17.2393H25.5524C25.4931 17.2393 25.4361 17.2628 25.3942 17.3048C25.3522 17.3468 25.3286 17.4037 25.3286 17.4631V20.1631C25.3286 20.2225 25.3522 20.2794 25.3942 20.3214C25.4361 20.3634 25.4931 20.387 25.5524 20.387ZM10.2863 24.8073H13.4044C13.4638 24.8073 13.5207 24.7838 13.5627 24.7418C13.6047 24.6998 13.6282 24.6429 13.6282 24.5835V21.8834C13.6282 21.824 13.6047 21.7671 13.5627 21.7251C13.5207 21.6832 13.4638 21.6596 13.4044 21.6596H10.2863C10.227 21.6596 10.17 21.6832 10.1281 21.7251C10.0861 21.7671 10.0625 21.824 10.0625 21.8834V24.5835C10.0625 24.6429 10.0861 24.6998 10.1281 24.7418C10.17 24.7838 10.227 24.8073 10.2863 24.8073ZM15.375 24.8073H18.4931C18.5525 24.8073 18.6094 24.7838 18.6514 24.7418C18.6934 24.6998 18.7169 24.6429 18.7169 24.5835V21.8834C18.7169 21.824 18.6934 21.7671 18.6514 21.7251C18.6094 21.6832 18.5525 21.6596 18.4931 21.6596H15.375C15.3157 21.6596 15.2587 21.6832 15.2168 21.7251C15.1748 21.7671 15.1512 21.824 15.1512 21.8834V24.5835C15.1512 24.6429 15.1748 24.6998 15.2168 24.7418C15.2587 24.7838 15.3157 24.8073 15.375 24.8073ZM20.4637 24.8073H23.5818C23.6412 24.8073 23.6981 24.7838 23.7401 24.7418C23.7821 24.6998 23.8056 24.6429 23.8056 24.5835V21.8834C23.8056 21.824 23.7821 21.7671 23.7401 21.7251C23.6981 21.6832 23.6412 21.6596 23.5818 21.6596H20.4637C20.4044 21.6596 20.3474 21.6832 20.3055 21.7251C20.2635 21.7671 20.2399 21.824 20.2399 21.8834V24.5835C20.2399 24.6429 20.2635 24.6998 20.3055 24.7418C20.3474 24.7838 20.4044 24.8073 20.4637 24.8073ZM25.5524 24.8073H28.6706C28.7299 24.8073 28.7869 24.7838 28.8288 24.7418C28.8708 24.6998 28.8944 24.6429 28.8944 24.5835V21.8834C28.8944 21.824 28.8708 21.7671 28.8288 21.7251C28.7869 21.6832 28.7299 21.6596 28.6706 21.6596H25.5524C25.4931 21.6596 25.4361 21.6832 25.3942 21.7251C25.3522 21.7671 25.3286 21.824 25.3286 21.8834V24.5835C25.3286 24.6429 25.3522 24.6998 25.3942 24.7418C25.4361 24.7838 25.4931 24.8073 25.5524 24.8073ZM13.4044 26.08H10.2864C10.227 26.08 10.1701 26.1036 10.1281 26.1455C10.0861 26.1875 10.0626 26.2444 10.0626 26.3038V29.0039C10.0626 29.0633 10.0861 29.1202 10.1281 29.1622C10.1701 29.2042 10.227 29.2277 10.2864 29.2277H13.4045C13.4638 29.2277 13.5208 29.2042 13.5627 29.1622C13.6047 29.1202 13.6283 29.0633 13.6283 29.0039V26.3038C13.6283 26.2444 13.6047 26.1875 13.5627 26.1455C13.5207 26.1036 13.4638 26.08 13.4044 26.08ZM18.4932 26.08H15.3751C15.3157 26.08 15.2588 26.1036 15.2168 26.1455C15.1748 26.1875 15.1513 26.2444 15.1513 26.3038V29.0039C15.1513 29.0633 15.1748 29.1202 15.2168 29.1622C15.2588 29.2042 15.3157 29.2277 15.3751 29.2277H18.4932C18.5525 29.2277 18.6095 29.2042 18.6514 29.1622C18.6934 29.1202 18.717 29.0633 18.717 29.0039V26.3038C18.717 26.2444 18.6934 26.1875 18.6514 26.1455C18.6095 26.1036 18.5525 26.08 18.4932 26.08ZM23.5819 26.08H20.4638C20.4044 26.08 20.3475 26.1036 20.3055 26.1455C20.2635 26.1875 20.24 26.2444 20.24 26.3038V29.0039C20.24 29.0633 20.2635 29.1202 20.3055 29.1622C20.3475 29.2042 20.4044 29.2277 20.4638 29.2277H23.5819C23.6413 29.2277 23.6982 29.2042 23.7402 29.1622C23.7822 29.1202 23.8058 29.0633 23.8058 29.0039V26.3038C23.8058 26.2444 23.7822 26.1875 23.7402 26.1455C23.6982 26.1036 23.6413 26.08 23.5819 26.08ZM28.6706 26.08H25.5524C25.4931 26.08 25.4361 26.1036 25.3942 26.1455C25.3522 26.1875 25.3286 26.2444 25.3286 26.3038V29.0039C25.3286 29.0633 25.3522 29.1202 25.3942 29.1622C25.4361 29.2042 25.4931 29.2277 25.5524 29.2277H28.6706C28.7299 29.2277 28.7869 29.2042 28.8288 29.1622C28.8708 29.1202 28.8944 29.0633 28.8944 29.0039V26.3038C28.8944 26.2444 28.8708 26.1875 28.8288 26.1455C28.7869 26.1036 28.7299 26.08 28.6706 26.08Z" fill="#302F2F"/>
</svg>
