<svg width="24" height="25" viewBox="0 0 24 25" fill="none" xmlns="http://www.w3.org/2000/svg">
<path d="M12.857 22.2857C18.063 22.2857 22.2856 18.0631 22.2856 12.8572C22.2856 7.65123 18.063 3.42859 12.857 3.42859C7.65111 3.42859 3.42847 7.65123 3.42847 12.8572C3.42847 18.0631 7.65111 22.2857 12.857 22.2857ZM12.1835 7.46941C12.1835 7.09899 12.4866 6.79592 12.857 6.79592C13.2275 6.79592 13.5305 7.09899 13.5305 7.46941V12.5339L16.6453 15.0257C16.9349 15.2581 16.982 15.6823 16.7497 15.972C16.6183 16.137 16.4231 16.2245 16.2244 16.2245C16.0762 16.2245 15.928 16.1773 15.8035 16.0763L12.4361 13.3825C12.2779 13.2545 12.1836 13.0626 12.1836 12.8572V7.46941H12.1835Z" fill="black"/>
</svg>
