<svg width="18" height="18" viewBox="0 0 18 18" fill="none" xmlns="http://www.w3.org/2000/svg">
<path d="M14.8187 15.4615C14.7342 15.4616 14.6505 15.4449 14.5725 15.4125C14.4945 15.3801 14.4237 15.3326 14.364 15.2728L2.72576 3.63604C2.60505 3.51533 2.53723 3.35161 2.53723 3.1809C2.53723 3.01019 2.60505 2.84647 2.72576 2.72576C2.84647 2.60505 3.01019 2.53723 3.1809 2.53723C3.35161 2.53723 3.51533 2.60505 3.63604 2.72576L15.2743 14.364C15.364 14.454 15.425 14.5686 15.4497 14.6932C15.4744 14.8179 15.4616 14.947 15.413 15.0644C15.3643 15.1818 15.2821 15.2821 15.1765 15.3528C15.0709 15.4235 14.9468 15.4613 14.8197 15.4615H14.8187Z" fill="black"/>
<path d="M3.18246 15.4615C3.05532 15.4615 2.93104 15.4238 2.8253 15.3532C2.71956 15.2826 2.63711 15.1823 2.58836 15.0649C2.53961 14.9474 2.52674 14.8182 2.55138 14.6935C2.57602 14.5687 2.63707 14.4541 2.72681 14.364L14.3651 2.72576C14.4858 2.60505 14.6495 2.53723 14.8202 2.53723C14.9909 2.53723 15.1547 2.60505 15.2754 2.72576C15.3961 2.84647 15.4639 3.01019 15.4639 3.1809C15.4639 3.35161 15.3961 3.51533 15.2754 3.63604L3.63709 15.2743C3.57735 15.3339 3.50644 15.3811 3.42843 15.4132C3.35042 15.4453 3.26683 15.4618 3.18246 15.4615Z" fill="black"/>
</svg>
