<svg width="16" height="16" viewBox="0 0 16 16" fill="none" xmlns="http://www.w3.org/2000/svg">
<path d="M7.99992 4.08333C8.64425 4.08333 9.16659 3.561 9.16659 2.91667C9.16659 2.27233 8.64425 1.75 7.99992 1.75C7.35559 1.75 6.83325 2.27233 6.83325 2.91667C6.83325 3.561 7.35559 4.08333 7.99992 4.08333Z" fill="#38392D"/>
<path d="M13.9999 6.08333C14.6443 6.08333 15.1666 5.561 15.1666 4.91667C15.1666 4.27233 14.6443 3.75 13.9999 3.75C13.3556 3.75 12.8333 4.27233 12.8333 4.91667C12.8333 5.561 13.3556 6.08333 13.9999 6.08333Z" fill="#38392D"/>
<path d="M1.99992 6.08333C2.64425 6.08333 3.16659 5.561 3.16659 4.91667C3.16659 4.27233 2.64425 3.75 1.99992 3.75C1.35559 3.75 0.833252 4.27233 0.833252 4.91667C0.833252 5.561 1.35559 6.08333 1.99992 6.08333Z" fill="#38392D"/>
<path fill-rule="evenodd" clip-rule="evenodd" d="M14.1565 5.68135C14.1772 5.57811 14.1647 5.47098 14.1209 5.37524C14.0771 5.27951 14.0042 5.20004 13.9126 5.14817C13.821 5.0963 13.7153 5.07468 13.6107 5.08638C13.506 5.09808 13.4078 5.14252 13.3299 5.21335L11.8459 6.56268C11.6646 6.72741 11.4458 6.84525 11.2085 6.9059C10.9712 6.96656 10.7227 6.96818 10.4846 6.91064C10.2465 6.8531 10.0262 6.73813 9.84279 6.57579C9.6594 6.41345 9.51855 6.20867 9.43254 5.97935L8.46787 3.40801C8.43208 3.31282 8.3681 3.23081 8.28448 3.17292C8.20086 3.11503 8.10158 3.08401 7.99987 3.08401C7.89817 3.08401 7.79889 3.11503 7.71527 3.17292C7.63165 3.23081 7.56767 3.31282 7.53188 3.40801L6.56721 5.97935C6.48147 6.20889 6.34074 6.41392 6.15737 6.57645C5.974 6.73899 5.75357 6.85409 5.51539 6.91166C5.27721 6.96923 5.02855 6.96752 4.79119 6.90668C4.55382 6.84584 4.33499 6.72772 4.15387 6.56268L2.66987 5.21335C2.59198 5.14252 2.49371 5.09808 2.38908 5.08638C2.28445 5.07468 2.17879 5.0963 2.08717 5.14817C1.99555 5.20004 1.92264 5.27951 1.87883 5.37524C1.83502 5.47098 1.82256 5.57811 1.84321 5.68135L2.96187 11.276C3.04496 11.6917 3.26952 12.0657 3.59734 12.3345C3.92516 12.6032 4.33598 12.7501 4.75987 12.75H11.2399C11.6638 12.7501 12.0746 12.6032 12.4024 12.3345C12.7302 12.0657 12.9548 11.6917 13.0379 11.276L14.1565 5.68135ZM11.9999 13.75H3.99987C3.86727 13.75 3.74009 13.8027 3.64632 13.8965C3.55255 13.9902 3.49987 14.1174 3.49987 14.25C3.49987 14.3826 3.55255 14.5098 3.64632 14.6036C3.74009 14.6973 3.86727 14.75 3.99987 14.75H11.9999C12.1325 14.75 12.2597 14.6973 12.3534 14.6036C12.4472 14.5098 12.4999 14.3826 12.4999 14.25C12.4999 14.1174 12.4472 13.9902 12.3534 13.8965C12.2597 13.8027 12.1325 13.75 11.9999 13.75Z" fill="#38392D"/>
</svg>
