<svg width="30" height="31" viewBox="0 0 30 31" fill="none" xmlns="http://www.w3.org/2000/svg">
<path d="M15 8.15625C16.2081 8.15625 17.1875 7.17687 17.1875 5.96875C17.1875 4.76063 16.2081 3.78125 15 3.78125C13.7919 3.78125 12.8125 4.76063 12.8125 5.96875C12.8125 7.17687 13.7919 8.15625 15 8.15625Z" fill="#121212"/>
<path d="M26.25 11.9063C27.4581 11.9063 28.4375 10.9269 28.4375 9.71875C28.4375 8.51063 27.4581 7.53125 26.25 7.53125C25.0419 7.53125 24.0625 8.51063 24.0625 9.71875C24.0625 10.9269 25.0419 11.9063 26.25 11.9063Z" fill="#121212"/>
<path d="M3.75 11.9063C4.95812 11.9063 5.9375 10.9269 5.9375 9.71875C5.9375 8.51063 4.95812 7.53125 3.75 7.53125C2.54188 7.53125 1.5625 8.51063 1.5625 9.71875C1.5625 10.9269 2.54188 11.9063 3.75 11.9063Z" fill="#121212"/>
<path fill-rule="evenodd" clip-rule="evenodd" d="M26.5432 11.1525C26.5819 10.9589 26.5586 10.758 26.4764 10.5785C26.3943 10.399 26.2576 10.25 26.0858 10.1528C25.914 10.0555 25.7159 10.015 25.5197 10.0369C25.3235 10.0588 25.1393 10.1422 24.9932 10.275L22.2107 12.805C21.8709 13.1138 21.4606 13.3348 21.0156 13.4485C20.5707 13.5622 20.1047 13.5653 19.6583 13.4574C19.2119 13.3495 18.7988 13.1339 18.4549 12.8296C18.1111 12.5252 17.847 12.1412 17.6857 11.7112L15.877 6.88997C15.8098 6.71148 15.6899 6.55771 15.5331 6.44917C15.3763 6.34062 15.1902 6.28247 14.9995 6.28247C14.8088 6.28247 14.6226 6.34062 14.4658 6.44917C14.309 6.55771 14.1891 6.71148 14.122 6.88997L12.3132 11.7112C12.1524 12.1416 11.8886 12.526 11.5448 12.8308C11.2009 13.1356 10.7876 13.3514 10.3411 13.4593C9.89447 13.5672 9.42823 13.564 8.98317 13.45C8.53811 13.3359 8.12781 13.1144 7.78821 12.805L5.00571 10.275C4.85965 10.1422 4.6754 10.0588 4.47922 10.0369C4.28303 10.015 4.08492 10.0555 3.91313 10.1528C3.74134 10.25 3.60464 10.399 3.5225 10.5785C3.44037 10.758 3.41699 10.9589 3.45571 11.1525L5.55321 21.6425C5.70899 22.4219 6.13005 23.1232 6.74471 23.6271C7.35937 24.131 8.12965 24.4063 8.92446 24.4062H21.0745C21.8693 24.4063 22.6396 24.131 23.2542 23.6271C23.8689 23.1232 24.2899 22.4219 24.4457 21.6425L26.5432 11.1525ZM22.4995 26.2812H7.49946C7.25082 26.2812 7.01236 26.38 6.83655 26.5558C6.66073 26.7316 6.56196 26.9701 6.56196 27.2187C6.56196 27.4674 6.66073 27.7058 6.83655 27.8816C7.01236 28.0574 7.25082 28.1562 7.49946 28.1562H22.4995C22.7481 28.1562 22.9866 28.0574 23.1624 27.8816C23.3382 27.7058 23.437 27.4674 23.437 27.2187C23.437 26.9701 23.3382 26.7316 23.1624 26.5558C22.9866 26.38 22.7481 26.2812 22.4995 26.2812Z" fill="#121212"/>
</svg>
