<svg width="81" height="81" viewBox="0 0 81 81" fill="none" xmlns="http://www.w3.org/2000/svg">
<g clip-path="url(#clip0_94_8536)">
<path d="M49.5696 48.286H38.4152V45.2874H42.5783C45.7595 45.2874 48.8104 44.0236 51.0598 41.7742C53.3093 39.5247 54.573 36.4738 54.573 33.2926C54.573 30.1114 53.3093 27.0605 51.0598 24.811C48.8104 22.5616 45.7595 21.2979 42.5783 21.2979H35.884C35.2126 21.2979 34.5688 21.5645 34.0941 22.0392C33.6194 22.5139 33.3527 23.1578 33.3527 23.8291V40.2249H28.9551C28.2837 40.2249 27.6399 40.4915 27.1652 40.9662C26.6905 41.4409 26.4238 42.0848 26.4238 42.7561C26.4238 43.4274 26.6905 44.0713 27.1652 44.546C27.6399 45.0207 28.2837 45.2874 28.9551 45.2874H33.3527V48.286H28.9551C28.2837 48.286 27.6399 48.5527 27.1652 49.0274C26.6905 49.5021 26.4238 50.146 26.4238 50.8173C26.4238 51.4886 26.6905 52.1325 27.1652 52.6072C27.6399 53.0819 28.2837 53.3485 28.9551 53.3485H33.3527V57.1842C33.3527 57.8556 33.6194 58.4994 34.0941 58.9741C34.5688 59.4488 35.2126 59.7155 35.884 59.7155C36.5553 59.7155 37.1991 59.4488 37.6738 58.9741C38.1485 58.4994 38.4152 57.8556 38.4152 57.1842V53.3485H49.5696C50.2409 53.3485 50.8847 53.0819 51.3594 52.6072C51.8341 52.1325 52.1008 51.4886 52.1008 50.8173C52.1008 50.146 51.8341 49.5021 51.3594 49.0274C50.8847 48.5527 50.2409 48.286 49.5696 48.286ZM38.4152 26.3604H42.5783C44.4168 26.3604 46.1801 27.0907 47.4801 28.3908C48.7802 29.6908 49.5105 31.4541 49.5105 33.2926C49.5105 35.1311 48.7802 36.8944 47.4801 38.1944C46.1801 39.4945 44.4168 40.2249 42.5783 40.2249H38.4152V26.3604Z" fill="#BDDA13"/>
<path d="M40.4995 81C34.1083 80.9993 27.8081 79.4861 22.1138 76.584C16.4195 73.6819 11.4928 69.4733 7.73662 64.3024C3.98043 59.1315 1.50134 53.145 0.502037 46.8325C-0.49727 40.5199 0.0115779 34.0604 1.98698 27.9822C3.96238 21.9039 7.34825 16.3795 11.8678 11.8605C16.3873 7.34152 21.9121 3.9563 27.9906 1.98161C34.0691 0.00691748 40.5286 -0.501174 46.8411 0.498873C53.1535 1.49892 59.1397 3.97871 64.3102 7.73551C64.579 7.93107 64.8066 8.17767 64.9801 8.46122C65.1536 8.74477 65.2696 9.05971 65.3214 9.38808C65.3732 9.71644 65.3598 10.0518 65.282 10.375C65.2042 10.6982 65.0634 11.0029 64.8679 11.2717C64.6723 11.5405 64.4257 11.7681 64.1422 11.9416C63.8586 12.1151 63.5437 12.2311 63.2153 12.2829C62.5521 12.3875 61.8746 12.2243 61.3317 11.8294C54.2895 6.7193 45.6117 4.38254 36.9557 5.26544C28.2997 6.14834 20.2723 10.189 14.4069 16.6157C8.54142 23.0423 5.249 31.4045 5.15849 40.1049C5.06798 48.8053 8.18574 57.2342 13.9162 63.7814C19.6467 70.3287 27.5883 74.5355 36.2241 75.5983C44.8598 76.661 53.5844 74.5053 60.7314 69.5428C67.8783 64.5804 72.9467 57.159 74.9685 48.6962C76.9902 40.2335 75.8235 31.3225 71.6913 23.6655C71.396 23.0771 71.3415 22.3968 71.5394 21.7689C71.7374 21.1411 72.1722 20.615 72.7515 20.3024C73.3309 19.9898 74.0093 19.9151 74.6428 20.0944C75.2762 20.2736 75.8149 20.6926 76.1446 21.2625C79.4714 27.4329 81.1401 34.361 80.9876 41.3695C80.8351 48.3779 78.8666 55.2269 75.2746 61.2467C71.6826 67.2666 66.5899 72.2514 60.4945 75.7138C54.3992 79.1761 47.5096 80.9976 40.4995 81Z" fill="#BDDA13"/>
<path d="M69.3911 18.3934C69.0253 18.3939 68.6638 18.3151 68.3314 18.1625C67.999 18.0098 67.7037 17.7869 67.4657 17.5092L67.01 16.9844C66.7844 16.7367 66.6101 16.4468 66.4973 16.1313C66.3845 15.8158 66.3355 15.481 66.3531 15.1464C66.3707 14.8118 66.4545 14.4841 66.5998 14.1821C66.745 13.8802 66.9487 13.6101 67.1991 13.3875C67.4496 13.1649 67.7417 12.9942 68.0585 12.8853C68.3754 12.7765 68.7108 12.7316 69.0451 12.7534C69.3795 12.7751 69.7062 12.863 70.0063 13.012C70.3064 13.161 70.5739 13.368 70.7934 13.6212L71.3132 14.2169C71.6276 14.5845 71.8301 15.0345 71.8967 15.5136C71.9633 15.9928 71.8913 16.481 71.689 16.9204C71.4868 17.3598 71.1629 17.7321 70.7556 17.9932C70.3484 18.2543 69.8748 18.3931 69.3911 18.3934Z" fill="#BDDA13"/>
</g>
<defs>
<clipPath id="clip0_94_8536">
<rect width="81" height="81" fill="white"/>
</clipPath>
</defs>
</svg>
