<svg width="21" height="20" viewBox="0 0 21 20" fill="none" xmlns="http://www.w3.org/2000/svg">
<g clip-path="url(#clip0_55_12965)">
<path fill-rule="evenodd" clip-rule="evenodd" d="M8.98841 2C8.39961 2 7.92201 2.4776 7.92201 3.0664C7.92201 3.13654 7.90818 3.20599 7.88131 3.27078C7.85445 3.33558 7.81507 3.39444 7.76544 3.444C7.7158 3.49356 7.65689 3.53284 7.59205 3.55961C7.52722 3.58638 7.45775 3.60011 7.38761 3.6H4.89961C4.68744 3.6 4.48395 3.68429 4.33392 3.83431C4.1839 3.98434 4.09961 4.18783 4.09961 4.4C4.09961 4.61217 4.1839 4.81566 4.33392 4.96569C4.48395 5.11571 4.68744 5.2 4.89961 5.2H16.0996C16.3118 5.2 16.5153 5.11571 16.6653 4.96569C16.8153 4.81566 16.8996 4.61217 16.8996 4.4C16.8996 4.18783 16.8153 3.98434 16.6653 3.83431C16.5153 3.68429 16.3118 3.6 16.0996 3.6H13.61C13.4686 3.59979 13.3331 3.54348 13.2332 3.44343C13.1333 3.34338 13.0772 3.20778 13.0772 3.0664C13.0772 2.4776 12.5996 2 12.0108 2H8.98841ZM5.69961 6.8C5.58893 6.79995 5.47943 6.82287 5.37806 6.86731C5.27669 6.91174 5.18564 6.97673 5.11068 7.05817C5.03571 7.1396 4.97846 7.2357 4.94254 7.34039C4.90662 7.44509 4.89282 7.5561 4.90201 7.6664L5.51881 15.0664C5.58562 15.8662 5.95052 16.6116 6.54116 17.155C7.1318 17.6984 7.90505 18 8.70761 18H12.2916C13.0943 18 13.8677 17.6983 14.4583 17.1547C15.049 16.6112 15.4138 15.8655 15.4804 15.0656L16.0964 7.6664C16.1056 7.55617 16.0918 7.44522 16.0559 7.34058C16.0201 7.23594 15.9629 7.13988 15.888 7.05846C15.8131 6.97704 15.7222 6.91203 15.6209 6.86755C15.5196 6.82306 15.4102 6.80006 15.2996 6.8H5.69961Z" fill="white"/>
</g>
<defs>
<clipPath id="clip0_55_12965">
<rect width="20" height="20" fill="white" transform="translate(0.0996094)"/>
</clipPath>
</defs>
</svg>
