<svg width="25" height="26" viewBox="0 0 25 26" fill="none" xmlns="http://www.w3.org/2000/svg">
<path fill-rule="evenodd" clip-rule="evenodd" d="M11.111 3C10.375 3 9.778 3.597 9.778 4.333C9.778 4.42068 9.76071 4.50749 9.72713 4.58848C9.69355 4.66947 9.64433 4.74304 9.58229 4.80499C9.52024 4.86694 9.4466 4.91605 9.36556 4.94951C9.28452 4.98298 9.19768 5.00013 9.11 5H6C5.73478 5 5.48043 5.10536 5.29289 5.29289C5.10536 5.48043 5 5.73478 5 6C5 6.26522 5.10536 6.51957 5.29289 6.70711C5.48043 6.89464 5.73478 7 6 7H20C20.2652 7 20.5196 6.89464 20.7071 6.70711C20.8946 6.51957 21 6.26522 21 6C21 5.73478 20.8946 5.48043 20.7071 5.29289C20.5196 5.10536 20.2652 5 20 5H16.888C16.7113 4.99974 16.5419 4.92935 16.417 4.80429C16.2921 4.67923 16.222 4.50973 16.222 4.333C16.222 3.597 15.625 3 14.889 3H11.111ZM7 9C6.86164 8.99994 6.72478 9.02859 6.59807 9.08413C6.47135 9.13968 6.35754 9.22092 6.26384 9.32271C6.17013 9.4245 6.09856 9.54463 6.05367 9.67549C6.00877 9.80636 5.99152 9.94512 6.003 10.083L6.774 19.333C6.85752 20.3327 7.31364 21.2646 8.05194 21.9438C8.79023 22.623 9.7568 23 10.76 23H15.24C16.2434 23 17.2101 22.6228 17.9484 21.9434C18.6867 21.264 19.1427 20.3319 19.226 19.332L19.996 10.083C20.0075 9.94521 19.9903 9.80653 19.9454 9.67573C19.9006 9.54493 19.8291 9.42485 19.7355 9.32308C19.6419 9.2213 19.5282 9.14004 19.4016 9.08443C19.275 9.02883 19.1383 9.00008 19 9H7Z" fill="#747474"/>
</svg>
