<svg width="12" height="13" viewBox="0 0 12 13" fill="none" xmlns="http://www.w3.org/2000/svg">
<g clip-path="url(#clip0_55_12335)">
<path d="M7.41061 2.51552L0.80808 9.11856C0.774832 9.15189 0.751137 9.19353 0.739465 9.23915L0.00761329 12.1766C-0.00315041 12.2202 -0.00249077 12.2658 0.00952848 12.3091C0.0215477 12.3523 0.0445204 12.3917 0.0762275 12.4235C0.124929 12.4721 0.190869 12.4994 0.259629 12.4994C0.280841 12.4994 0.301971 12.4968 0.322542 12.4916L3.25996 11.7597C3.30564 11.7482 3.34733 11.7245 3.38057 11.6912L9.98372 5.08857L7.41061 2.51552ZM11.6194 1.6152L10.8845 0.880253C10.3933 0.389037 9.53711 0.389525 9.04646 0.880253L8.14617 1.78057L10.7191 4.35353L11.6194 3.45324C11.8648 3.20797 12 2.88149 12 2.53428C12 2.18707 11.8648 1.86059 11.6194 1.6152Z" fill="#BDDA13"/>
</g>
<defs>
<clipPath id="clip0_55_12335">
<rect width="12" height="12" fill="white" transform="translate(0 0.5)"/>
</clipPath>
</defs>
</svg>
