<svg width="25" height="26" viewBox="0 0 25 26" fill="none" xmlns="http://www.w3.org/2000/svg">
<g clip-path="url(#clip0_55_11708)">
<path d="M15.8212 5.03091L2.61616 18.237C2.54966 18.3037 2.50227 18.3869 2.47893 18.4782L1.01523 24.353C0.993699 24.4402 0.995018 24.5315 1.01906 24.618C1.0431 24.7045 1.08904 24.7834 1.15245 24.847C1.24986 24.944 1.38174 24.9986 1.51926 24.9987C1.56168 24.9987 1.60394 24.9935 1.64508 24.9831L7.51993 23.5192C7.61128 23.4963 7.69466 23.4489 7.76115 23.3822L20.9674 10.177L15.8212 5.03091ZM24.2389 3.23028L22.7689 1.76038C21.7865 0.777953 20.0742 0.778927 19.0929 1.76038L17.2923 3.56102L22.4383 8.70693L24.2389 6.90635C24.7296 6.41582 24.9999 5.76286 24.9999 5.06843C24.9999 4.37401 24.7296 3.72105 24.2389 3.23028Z" fill="#424242"/>
</g>
<defs>
<clipPath id="clip0_55_11708">
<rect width="24" height="24" fill="white" transform="translate(1 1)"/>
</clipPath>
</defs>
</svg>
