<svg width="25" height="24" viewBox="0 0 25 24" fill="none" xmlns="http://www.w3.org/2000/svg">
<path d="M23 6.75V17.25C23 17.8467 22.7629 18.419 22.341 18.841C21.919 19.2629 21.3467 19.5 20.75 19.5H4.25C3.65326 19.5 3.08097 19.2629 2.65901 18.841C2.23705 18.419 2 17.8467 2 17.25V6.75C2.00243 6.49351 2.05069 6.23951 2.1425 6L11.255 12.075C11.624 12.3201 12.0571 12.4508 12.5 12.4508C12.9429 12.4508 13.376 12.3201 13.745 12.075L22.8575 6C22.9493 6.23951 22.9976 6.49351 23 6.75ZM12.9125 10.8225L21.9125 4.8225C21.5616 4.61118 21.1596 4.49967 20.75 4.5H4.25C3.84221 4.5033 3.44298 4.61736 3.095 4.83L12.095 10.83C12.2174 10.908 12.3598 10.9488 12.5049 10.9474C12.65 10.9461 12.7916 10.9027 12.9125 10.8225Z" fill="#38392D"/>
</svg>
