<svg width="34" height="33" viewBox="0 0 34 33" fill="none" xmlns="http://www.w3.org/2000/svg">
<path d="M17 28.6876C16.7321 28.6879 16.475 28.582 16.285 28.3931L5.01537 17.2212C3.57471 15.7935 2.78125 13.8935 2.78125 11.8727C2.78125 9.85131 3.57471 7.95158 5.01537 6.52336C7.98379 3.5816 12.8131 3.58008 15.7815 6.52387L17 7.73145L18.2185 6.52387C21.1874 3.58109 26.0167 3.58008 28.9846 6.52387C30.4253 7.95158 31.2188 9.85131 31.2188 11.8727C31.2188 13.8935 30.4253 15.7932 28.9846 17.2214L17.715 28.3931C17.525 28.582 17.2679 28.6879 17 28.6876Z" fill="#BDDA13"/>
</svg>
