<svg width="29" height="25" viewBox="0 0 29 25" fill="none" xmlns="http://www.w3.org/2000/svg">
<path d="M14.5985 22.4376C14.4101 22.4378 14.2293 22.3633 14.0958 22.2304L6.1711 14.3745C5.15805 13.3706 4.6001 12.0345 4.6001 10.6135C4.6001 9.19212 5.15805 7.85626 6.1711 6.85195C8.25845 4.78334 11.6544 4.78227 13.7417 6.85231L14.5985 7.70146L15.4554 6.85231C17.5431 4.78299 20.939 4.78227 23.026 6.85231C24.039 7.85626 24.597 9.19212 24.597 10.6135C24.597 12.0345 24.039 13.3704 23.026 14.3747L15.1013 22.2304C14.9677 22.3633 14.7869 22.4378 14.5985 22.4376ZM9.9564 6.72715C8.9496 6.72715 7.94297 7.10691 7.17684 7.86643C6.43606 8.60043 6.02845 9.57617 6.02845 10.6135C6.02845 11.6507 6.43606 12.6262 7.17684 13.36L14.5985 20.7176L22.0202 13.3604C22.7608 12.6264 23.1686 11.6507 23.1686 10.6135C23.1686 9.57599 22.761 8.60043 22.0202 7.86661C20.488 6.34685 17.9932 6.34721 16.4609 7.86626L15.1013 9.21408C14.9676 9.34676 14.7868 9.42121 14.5984 9.42121C14.4101 9.42121 14.2293 9.34676 14.0956 9.21408L12.736 7.86626C11.9698 7.10691 10.9632 6.72715 9.9564 6.72715Z" fill="#BDDA13"/>
</svg>
