<svg width="36" height="35" viewBox="0 0 36 35" fill="none" xmlns="http://www.w3.org/2000/svg">
<path d="M18 30.6248C17.7115 30.6251 17.4346 30.5111 17.23 30.3076L5.09348 18.2764C3.54199 16.7388 2.6875 14.6927 2.6875 12.5164C2.6875 10.3396 3.54199 8.29371 5.09348 6.75563C8.29023 3.58758 13.491 3.58594 16.6878 6.75617L18 8.05664L19.3122 6.75617C22.5095 3.58703 27.7103 3.58594 30.9065 6.75617C32.458 8.29371 33.3125 10.3396 33.3125 12.5164C33.3125 14.6927 32.458 16.7386 30.9065 18.2766L18.77 30.3076C18.5654 30.5111 18.2885 30.6251 18 30.6248ZM10.8906 6.56449C9.34871 6.56449 7.80707 7.14609 6.63375 8.3093C5.49926 9.4334 4.875 10.9277 4.875 12.5164C4.875 14.1048 5.49926 15.5989 6.63375 16.7227L18 27.9908L29.3663 16.7232C30.5005 15.5991 31.125 14.1048 31.125 12.5164C31.125 10.9275 30.5007 9.4334 29.3663 8.30957C27.0196 5.98207 23.1989 5.98262 20.8522 8.30902L18.77 10.3732C18.5652 10.5764 18.2884 10.6904 17.9999 10.6904C17.7114 10.6904 17.4345 10.5764 17.2297 10.3732L15.1475 8.30902C13.9742 7.14609 12.4325 6.56449 10.8906 6.56449Z" fill="white"/>
</svg>
