<svg width="21" height="22" viewBox="0 0 21 22" fill="none" xmlns="http://www.w3.org/2000/svg">
<g clip-path="url(#clip0_43_16580)">
<path d="M15.3155 0.5H5.68451C2.55002 0.5 0 3.05002 0 6.18451V15.8156C0 18.9499 2.55002 21.5 5.68451 21.5H15.3156C18.4499 21.5 21 18.9499 21 15.8156V6.18451C21 3.05002 18.4499 0.5 15.3155 0.5ZM10.5 16.742C7.33378 16.742 4.75797 14.1662 4.75797 11C4.75797 7.83374 7.33374 5.25797 10.5 5.25797C13.6662 5.25797 16.242 7.83374 16.242 11C16.242 14.1662 13.6662 16.742 10.5 16.742ZM16.3793 6.61214C15.4436 6.61214 14.6826 5.85109 14.6826 4.91541C14.6826 3.97972 15.4436 3.21859 16.3793 3.21859C17.315 3.21859 18.0761 3.97976 18.0761 4.91541C18.0761 5.85105 17.315 6.61214 16.3793 6.61214Z" fill="#BDDA13"/>
<path d="M10.4999 6.489C8.01272 6.489 5.98901 8.51251 5.98901 10.9999C5.98901 13.4871 8.01272 15.5108 10.4999 15.5108C12.9873 15.5108 15.0108 13.4871 15.0108 10.9999C15.0108 8.51251 12.9873 6.489 10.4999 6.489ZM16.3793 4.44971C16.1226 4.44971 15.9136 4.65868 15.9136 4.91532C15.9136 5.17199 16.1226 5.38093 16.3793 5.38093C16.6361 5.38093 16.845 5.17216 16.845 4.91532C16.845 4.65852 16.6361 4.44971 16.3793 4.44971Z" fill="#BDDA13"/>
</g>
<defs>
<clipPath id="clip0_43_16580">
<rect width="21" height="21" fill="white" transform="translate(0 0.5)"/>
</clipPath>
</defs>
</svg>
