<svg width="20" height="20" viewBox="0 0 20 20" fill="none" xmlns="http://www.w3.org/2000/svg">
<path d="M10.0024 1.09256C9.20973 1.09256 8.52039 1.62218 8.24429 2.27175L1.31048 16.0082C0.970261 16.7818 1.04923 17.5436 1.41142 18.0768C1.77361 18.6094 2.38992 18.9051 3.03236 18.9051H16.9439C17.5864 18.9051 18.2039 18.6106 18.566 18.0768C19.1331 17.242 18.7958 16.2736 18.667 16.0082L11.7326 2.27175C11.3413 1.54203 10.7956 1.09256 10.0024 1.09256ZM10.0024 7.18206C10.159 7.18268 10.3091 7.24519 10.4199 7.35596C10.5306 7.46673 10.5931 7.61678 10.5938 7.77343V11.9321C10.5938 12.0897 10.5311 12.2409 10.4197 12.3523C10.3082 12.4638 10.157 12.5264 9.99942 12.5264C9.84179 12.5264 9.69061 12.4638 9.57915 12.3523C9.46769 12.2409 9.40507 12.0897 9.40507 11.9321V7.77343C9.40539 7.69536 9.42109 7.61812 9.45129 7.54612C9.48149 7.47413 9.5256 7.40879 9.58108 7.35386C9.63656 7.29893 9.70233 7.25548 9.77462 7.226C9.84692 7.19652 9.92431 7.18159 10.0024 7.18206ZM10 13.8398C10.2363 13.8399 10.4629 13.9338 10.6299 14.1009C10.7969 14.2681 10.8907 14.4947 10.8906 14.731C10.8906 14.9673 10.7966 15.1939 10.6295 15.3609C10.4623 15.5279 10.2357 15.6217 9.99942 15.6216C9.88242 15.6216 9.76658 15.5985 9.6585 15.5537C9.55042 15.5089 9.45223 15.4432 9.36953 15.3605C9.28683 15.2777 9.22123 15.1795 9.1765 15.0714C9.13176 14.9633 9.10875 14.8474 9.10879 14.7304C9.10883 14.6134 9.13191 14.4976 9.17672 14.3895C9.22153 14.2814 9.28719 14.1832 9.36995 14.1005C9.45271 14.0178 9.55094 13.9522 9.65905 13.9075C9.76715 13.8627 9.88301 13.8397 10 13.8398Z" fill="#F72F2F" fill-opacity="0.6"/>
</svg>
