<svg width="12" height="13" viewBox="0 0 12 13" fill="none" xmlns="http://www.w3.org/2000/svg">
<g clip-path="url(#clip0_55_21091)">
<path d="M6 0.5C2.68634 0.5 0 3.18634 0 6.5C0 9.81366 2.68634 12.5 6 12.5C9.31366 12.5 12 9.81366 12 6.5C11.9963 3.18781 9.31219 0.503656 6 0.5ZM6 11.9C3.01767 11.9 0.600047 9.48233 0.600047 6.5C0.600047 3.51767 3.01767 1.10005 6 1.10005C8.98233 1.10005 11.4 3.51767 11.4 6.5C11.3966 9.48087 8.98087 11.8966 6 11.9Z" fill="#BDDA13"/>
<path d="M6.90069 9.19995H6.30076V5.29995C6.30076 5.13425 6.16646 4.99995 6.00073 4.99995H5.40069C5.23508 4.99995 5.10078 5.13425 5.10078 5.29995C5.10078 5.46568 5.23508 5.5999 5.40069 5.5999H5.70073V9.19993H5.10071C4.93508 9.19993 4.80078 9.33422 4.80078 9.49986C4.80078 9.66556 4.93508 9.79985 5.10071 9.79985H6.90071C7.06641 9.79985 7.20073 9.66556 7.20073 9.49986C7.20073 9.33425 7.06644 9.19993 6.90073 9.19993L6.90069 9.19995ZM6.60078 3.49995C6.60078 3.83129 6.33207 4.0999 6.00073 4.0999C5.6694 4.0999 5.40069 3.83129 5.40069 3.49995C5.40069 3.16854 5.6694 2.8999 6.00073 2.8999C6.33207 2.8999 6.60078 3.16854 6.60078 3.49995Z" fill="#BDDA13"/>
</g>
<defs>
<clipPath id="clip0_55_21091">
<rect width="12" height="12" fill="white" transform="translate(0 0.5)"/>
</clipPath>
</defs>
</svg>
