<svg width="24" height="24" version="1.1" xmlns="http://www.w3.org/2000/svg" xmlns:xlink="http://www.w3.org/1999/xlink" x="0px" y="0px" viewBox="0 0 256 256" enable-background="new 0 0 256 256" xml:space="preserve">
<metadata> Svg Vector Icons : http://www.onlinewebfonts.com/icon </metadata>
<g><g><g><path fill="#BDDA13FF" d="M169.4,10.5c-10.4,1.7-19.7,5.5-28.5,11.6c-4.2,2.9-55.1,53.7-58.9,58.7c-5.5,7.3-9.9,17.2-12.1,27.3c-1.2,5.4-1.2,19.3,0,25.1c1.8,8.8,5.2,17,10.2,24.6c2.9,4.3,13.3,15.5,15.6,16.7c1.7,0.9,5.4,0.8,6.8-0.1c2.3-1.5,12.6-12,13.4-13.7c2-3.9,1-6.2-5.7-13.2c-4.4-4.6-5.6-6.1-7.4-9.8c-3-6.1-4.1-10.5-4.1-17.1c0-8.2,2.4-15.7,6.9-21.8c3.1-4.2,51.2-51.8,54.2-53.6c3.8-2.4,8.8-4.3,13.5-5.1c5.1-0.9,7.4-0.9,12.5,0c8,1.4,13.8,4.5,19.9,10.6c3.4,3.4,4.6,5,6.4,8.4c3.2,6.2,4.2,10.2,4.2,17.2c0,4.4-0.2,6.6-1,9.4c-1.5,5.4-4.7,11.3-8.4,15.3c-1.8,1.9-3.2,3.6-3.2,3.9c0,0.3,0.5,2,1.1,3.9c2.9,8.9,4.8,22.1,4.2,28.9l-0.3,3.5l10.7-10.6c5.9-5.9,12-12.4,13.6-14.5c5.6-7.4,9.9-17.2,12.1-27.2c1.2-5.5,1.2-19.4,0-24.9c-1.4-6.5-3.5-12.4-6.4-18c-9.2-17.8-25.8-30.5-45.4-34.7C187.7,9.9,175.1,9.6,169.4,10.5z"/><path fill="#BDDA13FF" d="M153.5,81.7c-0.8,0.4-4.2,3.5-7.4,6.8c-9.1,9.2-9.2,10.5-1.7,18.3c9.7,10.2,12.9,17.2,12.9,28.6c0,8.2-1.8,14.3-6.2,20.9c-2.7,4-50,51.2-54,53.9c-3.6,2.4-7.7,4.2-11.8,5.4c-4.4,1.2-14,1.2-18.2,0c-9-2.4-16.7-8.1-21.7-15.8c-4.1-6.3-5.8-12-5.7-20c0-10.3,2.6-17.1,10-25.5l2.7-3.1l-1.3-4.2c-3-9.1-4.6-20.1-4.1-27.7l0.2-4.2l-11.4,11.5c-9,9.2-12.1,12.5-14.5,16.2c-5.1,7.7-8.5,16-10.3,25c-1.2,6.1-1.1,19.2,0.2,25.2c3,13.7,8.7,24.3,18.3,33.8c9.6,9.6,20.4,15.5,33.6,18.3c6.8,1.4,19.7,1.4,26.5,0c9-1.9,16.2-5,24.2-10.3c3.7-2.4,8.1-6.6,31.6-30.1c28.9-28.9,30.2-30.4,34.5-39c6.7-13.4,8.8-28.9,5.9-43.3C183,109.1,177.2,98.4,167,88c-3-3.1-6.1-6-6.8-6.4C158.5,80.8,155.3,80.8,153.5,81.7z"/></g></g></g>
</svg>
