<svg width="318" height="46" viewBox="0 0 318 46" fill="none" xmlns="http://www.w3.org/2000/svg">
<rect y="0.000244141" width="318" height="46" rx="23" fill="#D9D9D9"/>
<path d="M147.736 29.0002V17.0482H142.102L142.03 19.8922C141.982 21.6802 141.862 23.1622 141.67 24.3382C141.49 25.5142 141.232 26.4442 140.896 27.1282C140.572 27.8122 140.17 28.2982 139.69 28.5862C139.21 28.8622 138.652 29.0002 138.016 29.0002V28.1722C138.484 28.1722 138.904 28.0462 139.276 27.7942C139.648 27.5302 139.96 27.0862 140.212 26.4622C140.476 25.8382 140.686 24.9802 140.842 23.8882C140.998 22.7842 141.1 21.3922 141.148 19.7122L141.256 16.2202H148.654V29.0002H147.736ZM155.631 29.1802C154.971 29.1802 154.359 29.0542 153.795 28.8022C153.243 28.5502 152.763 28.2022 152.355 27.7582C151.947 27.3022 151.629 26.7802 151.401 26.1922C151.173 25.6042 151.059 24.9862 151.059 24.3382C151.059 23.6782 151.173 23.0602 151.401 22.4842C151.629 21.8962 151.947 21.3802 152.355 20.9362C152.775 20.4802 153.261 20.1262 153.813 19.8742C154.377 19.6102 154.983 19.4782 155.631 19.4782C156.279 19.4782 156.879 19.6102 157.431 19.8742C157.983 20.1262 158.469 20.4802 158.889 20.9362C159.309 21.3802 159.633 21.8962 159.861 22.4842C160.089 23.0602 160.203 23.6782 160.203 24.3382C160.203 24.9862 160.089 25.6042 159.861 26.1922C159.633 26.7802 159.309 27.3022 158.889 27.7582C158.481 28.2022 157.995 28.5502 157.431 28.8022C156.879 29.0542 156.279 29.1802 155.631 29.1802ZM151.959 24.3742C151.959 25.1062 152.121 25.7782 152.445 26.3902C152.781 26.9902 153.225 27.4702 153.777 27.8302C154.329 28.1902 154.941 28.3702 155.613 28.3702C156.285 28.3702 156.897 28.1902 157.449 27.8302C158.013 27.4582 158.457 26.9662 158.781 26.3542C159.117 25.7302 159.285 25.0522 159.285 24.3202C159.285 23.5882 159.117 22.9162 158.781 22.3042C158.457 21.6922 158.013 21.2062 157.449 20.8462C156.897 20.4742 156.291 20.2882 155.631 20.2882C154.959 20.2882 154.347 20.4742 153.795 20.8462C153.243 21.2182 152.799 21.7102 152.463 22.3222C152.127 22.9342 151.959 23.6182 151.959 24.3742ZM162.36 29.0002V19.6402H167.778V20.4502H163.26V29.0002H162.36ZM173.491 29.1802C172.831 29.1802 172.219 29.0542 171.655 28.8022C171.103 28.5502 170.623 28.2022 170.215 27.7582C169.807 27.3022 169.489 26.7802 169.261 26.1922C169.033 25.6042 168.919 24.9862 168.919 24.3382C168.919 23.6782 169.033 23.0602 169.261 22.4842C169.489 21.8962 169.807 21.3802 170.215 20.9362C170.635 20.4802 171.121 20.1262 171.673 19.8742C172.237 19.6102 172.843 19.4782 173.491 19.4782C174.139 19.4782 174.739 19.6102 175.291 19.8742C175.843 20.1262 176.329 20.4802 176.749 20.9362C177.169 21.3802 177.493 21.8962 177.721 22.4842C177.949 23.0602 178.063 23.6782 178.063 24.3382C178.063 24.9862 177.949 25.6042 177.721 26.1922C177.493 26.7802 177.169 27.3022 176.749 27.7582C176.341 28.2022 175.855 28.5502 175.291 28.8022C174.739 29.0542 174.139 29.1802 173.491 29.1802ZM169.819 24.3742C169.819 25.1062 169.981 25.7782 170.305 26.3902C170.641 26.9902 171.085 27.4702 171.637 27.8302C172.189 28.1902 172.801 28.3702 173.473 28.3702C174.145 28.3702 174.757 28.1902 175.309 27.8302C175.873 27.4582 176.317 26.9662 176.641 26.3542C176.977 25.7302 177.145 25.0522 177.145 24.3202C177.145 23.5882 176.977 22.9162 176.641 22.3042C176.317 21.6922 175.873 21.2062 175.309 20.8462C174.757 20.4742 174.151 20.2882 173.491 20.2882C172.819 20.2882 172.207 20.4742 171.655 20.8462C171.103 21.2182 170.659 21.7102 170.323 22.3222C169.987 22.9342 169.819 23.6182 169.819 24.3742Z" fill="black"/>
</svg>
