<svg width="173" height="46" viewBox="0 0 173 46" fill="none" xmlns="http://www.w3.org/2000/svg">
<rect width="172.484" height="46" rx="23" fill="#D9D9D9"/>
<path d="M74.4932 29V17.048H68.8592L68.7872 19.892C68.7392 21.68 68.6192 23.162 68.4272 24.338C68.2472 25.514 67.9892 26.444 67.6532 27.128C67.3292 27.812 66.9272 28.298 66.4472 28.586C65.9672 28.862 65.4092 29 64.7732 29V28.172C65.2412 28.172 65.6612 28.046 66.0332 27.794C66.4052 27.53 66.7172 27.086 66.9692 26.462C67.2332 25.838 67.4432 24.98 67.5992 23.888C67.7552 22.784 67.8572 21.392 67.9052 19.712L68.0132 16.22H75.4112V29H74.4932ZM82.3885 29.18C81.7285 29.18 81.1165 29.054 80.5525 28.802C80.0005 28.55 79.5205 28.202 79.1125 27.758C78.7045 27.302 78.3865 26.78 78.1585 26.192C77.9305 25.604 77.8165 24.986 77.8165 24.338C77.8165 23.678 77.9305 23.06 78.1585 22.484C78.3865 21.896 78.7045 21.38 79.1125 20.936C79.5325 20.48 80.0185 20.126 80.5705 19.874C81.1345 19.61 81.7405 19.478 82.3885 19.478C83.0365 19.478 83.6365 19.61 84.1885 19.874C84.7405 20.126 85.2265 20.48 85.6465 20.936C86.0665 21.38 86.3905 21.896 86.6185 22.484C86.8465 23.06 86.9605 23.678 86.9605 24.338C86.9605 24.986 86.8465 25.604 86.6185 26.192C86.3905 26.78 86.0665 27.302 85.6465 27.758C85.2385 28.202 84.7525 28.55 84.1885 28.802C83.6365 29.054 83.0365 29.18 82.3885 29.18ZM78.7165 24.374C78.7165 25.106 78.8785 25.778 79.2025 26.39C79.5385 26.99 79.9825 27.47 80.5345 27.83C81.0865 28.19 81.6985 28.37 82.3705 28.37C83.0425 28.37 83.6545 28.19 84.2065 27.83C84.7705 27.458 85.2145 26.966 85.5385 26.354C85.8745 25.73 86.0425 25.052 86.0425 24.32C86.0425 23.588 85.8745 22.916 85.5385 22.304C85.2145 21.692 84.7705 21.206 84.2065 20.846C83.6545 20.474 83.0485 20.288 82.3885 20.288C81.7165 20.288 81.1045 20.474 80.5525 20.846C80.0005 21.218 79.5565 21.71 79.2205 22.322C78.8845 22.934 78.7165 23.618 78.7165 24.374ZM89.1169 29V19.64H94.5349V20.45H90.0169V29H89.1169ZM100.248 29.18C99.5879 29.18 98.9759 29.054 98.4119 28.802C97.8599 28.55 97.3799 28.202 96.9719 27.758C96.5639 27.302 96.2459 26.78 96.0179 26.192C95.7899 25.604 95.6759 24.986 95.6759 24.338C95.6759 23.678 95.7899 23.06 96.0179 22.484C96.2459 21.896 96.5639 21.38 96.9719 20.936C97.3919 20.48 97.8779 20.126 98.4299 19.874C98.9939 19.61 99.5999 19.478 100.248 19.478C100.896 19.478 101.496 19.61 102.048 19.874C102.6 20.126 103.086 20.48 103.506 20.936C103.926 21.38 104.25 21.896 104.478 22.484C104.706 23.06 104.82 23.678 104.82 24.338C104.82 24.986 104.706 25.604 104.478 26.192C104.25 26.78 103.926 27.302 103.506 27.758C103.098 28.202 102.612 28.55 102.048 28.802C101.496 29.054 100.896 29.18 100.248 29.18ZM96.5759 24.374C96.5759 25.106 96.7379 25.778 97.0619 26.39C97.3979 26.99 97.8419 27.47 98.3939 27.83C98.9459 28.19 99.5579 28.37 100.23 28.37C100.902 28.37 101.514 28.19 102.066 27.83C102.63 27.458 103.074 26.966 103.398 26.354C103.734 25.73 103.902 25.052 103.902 24.32C103.902 23.588 103.734 22.916 103.398 22.304C103.074 21.692 102.63 21.206 102.066 20.846C101.514 20.474 100.908 20.288 100.248 20.288C99.5759 20.288 98.9639 20.474 98.4119 20.846C97.8599 21.218 97.4159 21.71 97.0799 22.322C96.7439 22.934 96.5759 23.618 96.5759 24.374Z" fill="black"/>
</svg>
