<svg width="19" height="18" viewBox="0 0 19 18" fill="none" xmlns="http://www.w3.org/2000/svg">
<path d="M3.92953 5.73046C5.57648 7.12525 8.46637 9.57911 9.31574 10.3442C9.42977 10.4475 9.55206 10.5 9.67903 10.5C9.80573 10.5 9.92781 10.448 10.0416 10.3452C10.8917 9.57935 13.7816 7.12525 15.4285 5.73046C15.5311 5.64379 15.5467 5.49145 15.4637 5.38549C15.2718 5.14063 14.9857 5.00024 14.679 5.00024H4.67903C4.3724 5.00024 4.08625 5.14063 3.89437 5.38551C3.81135 5.49145 3.82699 5.64379 3.92953 5.73046Z" fill="#222222"/>
<path d="M15.5341 6.48621C15.4908 6.46605 15.4427 6.45874 15.3955 6.46515C15.3482 6.47155 15.3038 6.49141 15.2675 6.52235C13.441 8.07068 11.11 10.0553 10.3766 10.7162C9.96494 11.0878 9.39366 11.0878 8.98106 10.7157C8.19933 10.0113 5.58164 7.78601 4.09069 6.52233C4.05431 6.49153 4.00989 6.47177 3.96266 6.46537C3.91543 6.45896 3.86735 6.46619 3.82408 6.48619C3.78081 6.50624 3.74416 6.53824 3.71847 6.57843C3.69278 6.61862 3.67911 6.66531 3.67908 6.71301V13.0001C3.67908 13.5517 4.12755 14.0001 4.67908 14.0001H14.6791C15.2306 14.0001 15.6791 13.5517 15.6791 13.0001V6.71301C15.6791 6.66531 15.6654 6.6186 15.6397 6.57841C15.614 6.53822 15.5774 6.50623 15.5341 6.48621Z" fill="#222222"/>
</svg>
