<svg width="24" height="29" viewBox="0 0 24 29" fill="none" xmlns="http://www.w3.org/2000/svg">
<path fill-rule="evenodd" clip-rule="evenodd" d="M12.5516 1.52637C9.62248 1.52999 6.81429 2.67905 4.74264 4.72166C2.67098 6.76427 1.5049 9.53377 1.5 12.4231C1.5 16.5927 4.17146 20.3923 6.71792 23.2147C9.26438 26.0371 11.8108 27.9186 11.8108 27.9186C12.0232 28.0758 12.2815 28.1607 12.547 28.1607C12.8125 28.1607 13.0708 28.0758 13.2831 27.9186C13.2831 27.9186 15.8296 26.0371 18.3761 23.2147C20.9225 20.3923 23.594 16.5927 23.594 12.4231C23.5915 9.53382 22.4269 6.76361 20.3557 4.72061C18.2845 2.6776 15.4807 1.52879 12.5516 1.52637ZM12.547 7.58211C13.8486 7.58211 15.0969 8.09214 16.0173 8.99999C16.9376 9.90785 17.4547 11.1392 17.4547 12.4231C17.4547 13.707 16.9376 14.9383 16.0173 15.8461C15.0969 16.754 13.8486 17.264 12.547 17.264C11.2454 17.264 9.99709 16.754 9.07671 15.8461C8.15634 14.9383 7.63927 13.707 7.63927 12.4231C7.63927 11.1392 8.15634 9.90785 9.07671 8.99999C9.99709 8.09214 11.2454 7.58211 12.547 7.58211Z" fill="#BDDA13"/>
</svg>
