<svg width="15" height="14" viewBox="0 0 15 14" fill="none" xmlns="http://www.w3.org/2000/svg">
<path fill-rule="evenodd" clip-rule="evenodd" d="M7.26268 0.5C5.86785 0.501749 4.53061 1.05647 3.54411 2.04255C2.55761 3.02864 2.00233 4.36564 2 5.76047C2 7.77339 3.27213 9.60772 4.48472 10.9702C5.69732 12.3328 6.90992 13.2411 6.90992 13.2411C7.01105 13.317 7.13406 13.358 7.26047 13.358C7.38689 13.358 7.50989 13.317 7.61102 13.2411C7.61102 13.2411 8.82362 12.3328 10.0362 10.9702C11.2488 9.60772 12.5209 7.77339 12.5209 5.76047C12.5198 4.36567 11.9652 3.02832 10.9789 2.04205C9.99262 1.05577 8.65748 0.501168 7.26268 0.5ZM7.26047 3.42346C7.88029 3.42346 8.47471 3.66968 8.91299 4.10796C9.35126 4.54623 9.59748 5.14066 9.59748 5.76047C9.59748 6.38029 9.35126 6.97471 8.91299 7.41299C8.47471 7.85126 7.88029 8.09748 7.26047 8.09748C6.64066 8.09748 6.04623 7.85126 5.60796 7.41299C5.16968 6.97471 4.92346 6.38029 4.92346 5.76047C4.92346 5.14066 5.16968 4.54623 5.60796 4.10796C6.04623 3.66968 6.64066 3.42346 7.26047 3.42346Z" fill="#BDDA13"/>
</svg>
