<svg width="23" height="25" viewBox="0 0 23 25" fill="none" xmlns="http://www.w3.org/2000/svg">
<rect x="5.44727" y="9.34229" width="12.1053" height="5.05263" fill="white"/>
<path d="M15.6506 6.18408H7.68622C6.93211 6.18502 6.20914 6.49804 5.67591 7.05446C5.14267 7.61088 4.8427 8.36527 4.8418 9.15217V15.0883C4.8427 15.8752 5.14267 16.6296 5.67591 17.1861C6.20914 17.7425 6.93211 18.0555 7.68622 18.0564H8.82398V21.0245C8.82409 21.138 8.85533 21.249 8.91401 21.3445C8.9727 21.4399 9.05637 21.5159 9.15513 21.5633C9.25388 21.6107 9.36358 21.6276 9.47125 21.6119C9.57892 21.5963 9.68004 21.5488 9.76264 21.4751L13.5855 18.0564H15.6506C16.4047 18.0555 17.1277 17.7425 17.6609 17.1861C18.1941 16.6296 18.4941 15.8752 18.495 15.0883V9.15217C18.4941 8.36527 18.1941 7.61088 17.6609 7.05446C17.1277 6.49804 16.4047 6.18502 15.6506 6.18408ZM8.2551 13.3075C8.03007 13.3075 7.8101 13.2379 7.62299 13.1074C7.43589 12.977 7.29005 12.7915 7.20394 12.5746C7.11782 12.3577 7.09529 12.1189 7.13919 11.8886C7.1831 11.6583 7.29146 11.4468 7.45058 11.2808C7.6097 11.1147 7.81243 11.0016 8.03313 10.9558C8.25384 10.91 8.4826 10.9335 8.6905 11.0234C8.8984 11.1133 9.0761 11.2654 9.20112 11.4607C9.32614 11.6559 9.39287 11.8854 9.39287 12.1203C9.39287 12.4351 9.273 12.7371 9.05962 12.9598C8.84625 13.1824 8.55685 13.3075 8.2551 13.3075ZM11.6684 13.3075C11.4434 13.3075 11.2234 13.2379 11.0363 13.1074C10.8492 12.977 10.7034 12.7915 10.6172 12.5746C10.5311 12.3577 10.5086 12.1189 10.5525 11.8886C10.5964 11.6583 10.7048 11.4468 10.8639 11.2808C11.023 11.1147 11.2257 11.0016 11.4464 10.9558C11.6671 10.91 11.8959 10.9335 12.1038 11.0234C12.3117 11.1133 12.4894 11.2654 12.6144 11.4607C12.7394 11.6559 12.8062 11.8854 12.8062 12.1203C12.8062 12.4351 12.6863 12.7371 12.4729 12.9598C12.2596 13.1824 11.9702 13.3075 11.6684 13.3075ZM15.0817 13.3075C14.8567 13.3075 14.6367 13.2379 14.4496 13.1074C14.2625 12.977 14.1167 12.7915 14.0305 12.5746C13.9444 12.3577 13.9219 12.1189 13.9658 11.8886C14.0097 11.6583 14.1181 11.4468 14.2772 11.2808C14.4363 11.1147 14.639 11.0016 14.8597 10.9558C15.0804 10.91 15.3092 10.9335 15.5171 11.0234C15.725 11.1133 15.9027 11.2654 16.0277 11.4607C16.1527 11.6559 16.2195 11.8854 16.2195 12.1203C16.2195 12.4351 16.0996 12.7371 15.8862 12.9598C15.6729 13.1824 15.3835 13.3075 15.0817 13.3075Z" fill="#BDDA13"/>
</svg>
