<svg width="24" height="25" viewBox="0 0 24 25" fill="none" xmlns="http://www.w3.org/2000/svg">
<g clip-path="url(#clip0_43_16545)">
<path fill-rule="evenodd" clip-rule="evenodd" d="M23.5613 21.6103C23.4019 21.7692 23.2097 21.9723 23.0059 22.1872C22.4974 22.7269 21.8622 23.3977 21.464 23.6698C19.3692 25.1013 16.5666 24.4163 14.5842 23.5903C11.9691 22.5007 9.12197 20.4923 6.56555 17.9356C4.00674 15.3786 1.99852 12.5306 0.908908 9.917C0.0839076 7.93419 -0.602483 5.13106 0.82922 3.03575C1.1011 2.63731 1.77352 2.00305 2.31249 1.49356C2.52811 1.29041 2.72967 1.09845 2.88905 0.939593C3.172 0.658051 3.55491 0.5 3.95407 0.5C4.35323 0.5 4.73615 0.658051 5.01909 0.939593L8.87353 4.79291C9.15492 5.07584 9.31287 5.45866 9.31287 5.85769C9.31287 6.25673 9.15492 6.63955 8.87353 6.92248L7.82353 7.97037C7.47287 8.31847 7.24398 8.7705 7.17093 9.25917C7.09788 9.74784 7.18458 10.247 7.41811 10.6825C8.86232 13.4083 11.0919 15.6375 13.818 17.0812C14.2533 17.3147 14.7524 17.4013 15.2409 17.3281C15.7295 17.2549 16.1813 17.0259 16.5291 16.6752L17.5765 15.6272C17.8595 15.3457 18.2424 15.1876 18.6416 15.1876C19.0407 15.1876 19.4236 15.3457 19.7066 15.6272L23.5613 19.4812C23.8426 19.764 24.0006 20.1468 24.0006 20.5457C24.0006 20.9447 23.8426 21.3275 23.5613 21.6103Z" fill="#BDDA13"/>
</g>
<defs>
<clipPath id="clip0_43_16545">
<rect width="24" height="24" fill="white" transform="translate(0 0.5)"/>
</clipPath>
</defs>
</svg>
