<svg width="17" height="17" viewBox="0 0 17 17" fill="none" xmlns="http://www.w3.org/2000/svg">
<path d="M4.5013 15.6668H12.5013C13.3408 15.6658 14.1457 15.3318 14.7393 14.7382C15.3329 14.1445 15.6669 13.3397 15.668 12.5002V4.50016C15.6669 3.66064 15.3329 2.8558 14.7393 2.26216C14.1457 1.66852 13.3408 1.33455 12.5013 1.3335H4.5013C3.66177 1.33455 2.85693 1.66852 2.2633 2.26216C1.66966 2.8558 1.33569 3.66064 1.33463 4.50016V12.5002C1.33569 13.3397 1.66966 14.1445 2.2633 14.7382C2.85693 15.3318 3.66177 15.6658 4.5013 15.6668ZM12.5013 2.3335C13.0757 2.3342 13.6264 2.5627 14.0326 2.96888C14.4388 3.37505 14.6673 3.92574 14.668 4.50016V12.5002C14.6673 13.0746 14.4388 13.6253 14.0326 14.0314C13.6264 14.4376 13.0757 14.6661 12.5013 14.6668H4.5013C3.92688 14.6661 3.37619 14.4376 2.97002 14.0314C2.56384 13.6253 2.33534 13.0746 2.33464 12.5002V4.50016C2.33534 3.92574 2.56384 3.37505 2.97002 2.96888C3.37619 2.5627 3.92688 2.3342 4.5013 2.3335H12.5013Z" fill="black"/>
<path d="M8.5 12.3337C8.63261 12.3337 8.75978 12.281 8.85355 12.1872C8.94732 12.0934 9 11.9663 9 11.8337V5.16699C9 5.03438 8.94732 4.90721 8.85355 4.81344C8.75978 4.71967 8.63261 4.66699 8.5 4.66699C8.36739 4.66699 8.24022 4.71967 8.14645 4.81344C8.05268 4.90721 8 5.03438 8 5.16699V11.8337C8 11.9663 8.05268 12.0934 8.14645 12.1872C8.24022 12.281 8.36739 12.3337 8.5 12.3337Z" fill="black"/>
<path d="M5.16927 9H11.8359C11.9685 9 12.0957 8.94732 12.1895 8.85355C12.2833 8.75978 12.3359 8.63261 12.3359 8.5C12.3359 8.36739 12.2833 8.24022 12.1895 8.14645C12.0957 8.05268 11.9685 8 11.8359 8H5.16927C5.03666 8 4.90949 8.05268 4.81572 8.14645C4.72195 8.24022 4.66927 8.36739 4.66927 8.5C4.66927 8.63261 4.72195 8.75978 4.81572 8.85355C4.90949 8.94732 5.03666 9 5.16927 9Z" fill="black"/>
</svg>
