<svg width="16" height="16" viewBox="0 0 16 16" fill="none" xmlns="http://www.w3.org/2000/svg">
<g clip-path="url(#clip0_55_13126)">
<path d="M4.0013 15.1663H12.0013C12.8408 15.1653 13.6457 14.8313 14.2393 14.2377C14.8329 13.644 15.1669 12.8392 15.168 11.9997V3.99967C15.1669 3.16015 14.8329 2.35531 14.2393 1.76167C13.6457 1.16804 12.8408 0.834066 12.0013 0.833008H4.0013C3.16177 0.834066 2.35693 1.16804 1.7633 1.76167C1.16966 2.35531 0.835693 3.16015 0.834635 3.99967V11.9997C0.835693 12.8392 1.16966 13.644 1.7633 14.2377C2.35693 14.8313 3.16177 15.1653 4.0013 15.1663ZM12.0013 1.83301C12.5757 1.83371 13.1264 2.06221 13.5326 2.46839C13.9388 2.87457 14.1673 3.42526 14.168 3.99967V11.9997C14.1673 12.5741 13.9388 13.1248 13.5326 13.531C13.1264 13.9371 12.5757 14.1656 12.0013 14.1663H4.0013C3.42688 14.1656 2.87619 13.9371 2.47002 13.531C2.06384 13.1248 1.83534 12.5741 1.83463 11.9997V3.99967C1.83534 3.42526 2.06384 2.87457 2.47002 2.46839C2.87619 2.06221 3.42688 1.83371 4.0013 1.83301H12.0013Z" fill="#BDDA13"/>
<path d="M8 11.8327C8.13261 11.8327 8.25978 11.78 8.35355 11.6862C8.44732 11.5925 8.5 11.4653 8.5 11.3327V4.66602C8.5 4.53341 8.44732 4.40623 8.35355 4.31246C8.25978 4.21869 8.13261 4.16602 8 4.16602C7.86739 4.16602 7.74022 4.21869 7.64645 4.31246C7.55268 4.40623 7.5 4.53341 7.5 4.66602V11.3327C7.5 11.4653 7.55268 11.5925 7.64645 11.6862C7.74022 11.78 7.86739 11.8327 8 11.8327Z" fill="#BDDA13"/>
<path d="M4.66927 8.5H11.3359C11.4685 8.5 11.5957 8.44732 11.6895 8.35355C11.7833 8.25978 11.8359 8.13261 11.8359 8C11.8359 7.86739 11.7833 7.74022 11.6895 7.64645C11.5957 7.55268 11.4685 7.5 11.3359 7.5H4.66927C4.53666 7.5 4.40948 7.55268 4.31572 7.64645C4.22195 7.74022 4.16927 7.86739 4.16927 8C4.16927 8.13261 4.22195 8.25978 4.31572 8.35355C4.40948 8.44732 4.53666 8.5 4.66927 8.5Z" fill="#BDDA13"/>
</g>
<defs>
<clipPath id="clip0_55_13126">
<rect width="16" height="16" fill="white" transform="matrix(-1 0 0 1 16 0)"/>
</clipPath>
</defs>
</svg>
