<svg width="20" height="20" viewBox="0 0 20 20" fill="none" xmlns="http://www.w3.org/2000/svg">
<path d="M18.0905 16.9112L13.5938 12.4145C14.5058 11.2497 15.0013 9.813 15.0013 8.33366C15.0013 4.65783 12.0105 1.66699 8.33464 1.66699C4.6588 1.66699 1.66797 4.65783 1.66797 8.33366C1.66797 12.0095 4.6588 15.0003 8.33464 15.0003C9.81383 15.0003 11.2504 14.5051 12.4155 13.5937L16.9121 18.0903C17.0685 18.2466 17.2805 18.3343 17.5016 18.3342C17.7227 18.3342 17.9346 18.2463 18.0909 18.0899C18.2471 17.9335 18.3349 17.7215 18.3348 17.5004C18.3347 17.2794 18.2468 17.0674 18.0905 16.9112ZM3.33464 8.33366C3.33464 5.57616 5.57714 3.33366 8.33464 3.33366C11.0921 3.33366 13.3346 5.57616 13.3346 8.33366C13.3346 11.0912 11.0921 13.3337 8.33464 13.3337C5.57714 13.3337 3.33464 11.0912 3.33464 8.33366Z" fill="#88888C"/>
</svg>
