<svg width="18" height="19" viewBox="0 0 18 19" fill="none" xmlns="http://www.w3.org/2000/svg">
<path d="M9.00134 14.5C8.90968 14.5001 8.8189 14.4821 8.73422 14.447C8.64954 14.4119 8.57263 14.3604 8.50791 14.2955L1.52875 7.31639C1.25604 7.04368 1.25604 6.60207 1.52875 6.32953C1.80146 6.057 2.24307 6.05682 2.5156 6.32953L9.00134 12.8153L15.4871 6.32953C15.7598 6.05682 16.2014 6.05682 16.4739 6.32953C16.7465 6.60224 16.7466 7.04385 16.4739 7.31639L9.49476 14.2955C9.43004 14.3604 9.35313 14.4119 9.26845 14.447C9.18377 14.4821 9.093 14.5001 9.00134 14.5Z" fill="black"/>
</svg>
