<svg width="15" height="15" viewBox="0 0 15 15" fill="none" xmlns="http://www.w3.org/2000/svg">
<g clip-path="url(#clip0_3_12022)">
<path fill-rule="evenodd" clip-rule="evenodd" d="M0.9375 2.96803H7.45715C7.42816 2.82694 7.41326 2.68332 7.41266 2.53928L7.41272 2.527C7.41286 2.38125 7.42762 2.23587 7.4568 2.09306H0.9375C0.695809 2.09306 0.5 2.28884 0.5 2.53056C0.5 2.77228 0.695781 2.96809 0.9375 2.96803ZM6.77329 7.49873V7.5042C6.77104 8.253 6.15999 8.86211 5.41148 8.86211C4.66366 8.86209 4.05258 8.25363 4.04938 7.50545L4.04941 7.49777C4.05034 6.74765 4.66106 6.13791 5.41148 6.13791C6.16128 6.13788 6.77167 6.74735 6.77329 7.49681V7.49873ZM14.0625 7.06251H7.54315C7.57226 7.20482 7.58707 7.34967 7.58734 7.49493V7.50668C7.58695 7.65142 7.5721 7.79576 7.54301 7.93754L14.0625 7.93751C14.3042 7.93751 14.5 7.74176 14.5 7.50004C14.5 7.25829 14.3042 7.06251 14.0625 7.06251ZM3.27949 7.06251H0.9375C0.695809 7.06251 0.5 7.25832 0.5 7.50004C0.5 7.74173 0.695781 7.93754 0.9375 7.93754L3.27985 7.93751C3.25084 7.79641 3.23594 7.65278 3.23536 7.50873L3.23539 7.49646C3.23552 7.3507 3.25029 7.20532 3.27949 7.06251ZM9.58852 13.8315C8.83872 13.8315 8.22833 13.2221 8.22671 12.4727V12.4653C8.22898 11.7164 8.84001 11.1074 9.58849 11.1074C10.3364 11.1074 10.9474 11.7158 10.9506 12.464L10.9506 12.4717C10.9497 13.2218 10.3389 13.8316 9.58852 13.8315ZM14.0625 12.032H11.7205C11.7496 12.1743 11.7644 12.3191 11.7646 12.4644V12.4761C11.7642 12.6208 11.7494 12.7652 11.7203 12.9069H14.0625C14.3042 12.9069 14.5 12.7112 14.5 12.4694C14.5 12.2278 14.3042 12.032 14.0625 12.032ZM7.4568 12.032H0.9375C0.695809 12.032 0.5 12.2278 0.5 12.4695C0.5 12.7112 0.695781 12.907 0.9375 12.907H7.45715C7.42816 12.7659 7.41326 12.6222 7.41266 12.4782L7.41272 12.4659C7.41285 12.3202 7.42762 12.1748 7.4568 12.032ZM8.22671 2.53184V2.52638C8.22898 1.77754 8.84001 1.16846 9.58849 1.16846C10.3364 1.16843 10.9474 1.77694 10.9506 2.52512L10.9506 2.53277C10.9493 3.28257 10.3389 3.89266 9.58849 3.89266C8.83872 3.89266 8.2283 3.2832 8.22671 2.53376V2.53184ZM11.7203 2.96809L14.0625 2.96803C14.3042 2.96803 14.5 2.77228 14.5 2.53056C14.5 2.28881 14.3042 2.09306 14.0625 2.09306H11.7205C11.7496 2.23535 11.7644 2.3802 11.7646 2.52545V2.5372C11.7643 2.68195 11.7494 2.82629 11.7203 2.96809Z" fill="#302F2F"/>
</g>
<defs>
<clipPath id="clip0_3_12022">
<rect width="14" height="14" fill="white" transform="translate(0.5 0.5)"/>
</clipPath>
</defs>
</svg>
