<svg width="21" height="19" viewBox="0 0 21 19" fill="none" xmlns="http://www.w3.org/2000/svg">
<path d="M19.875 9.5C19.875 10.26 18.8922 10.8864 18.6953 11.587C18.4922 12.3114 19.0063 13.3208 18.6203 13.9546C18.2281 14.5988 17.0484 14.676 16.4984 15.1985C15.9484 15.721 15.8672 16.8417 15.1891 17.2143C14.5219 17.5809 13.4594 17.0926 12.6969 17.2855C11.9594 17.4726 11.3 18.4062 10.5 18.4062C9.7 18.4062 9.04062 17.4726 8.30312 17.2855C7.54062 17.0926 6.47813 17.5809 5.81094 17.2143C5.13281 16.8417 5.05156 15.721 4.50156 15.1985C3.95156 14.676 2.77187 14.5988 2.37969 13.9546C1.99375 13.3208 2.50781 12.3114 2.30469 11.587C2.10781 10.8864 1.125 10.26 1.125 9.5C1.125 8.74 2.10781 8.11359 2.30469 7.41297C2.50781 6.68859 1.99375 5.67922 2.37969 5.04539C2.77187 4.40117 3.95156 4.32398 4.50156 3.80148C5.05156 3.27898 5.13281 2.15828 5.81094 1.7857C6.47813 1.41906 7.54062 1.90742 8.30312 1.71445C9.04062 1.52742 9.7 0.59375 10.5 0.59375C11.3 0.59375 11.9594 1.52742 12.6969 1.71445C13.4594 1.90742 14.5219 1.41906 15.1891 1.7857C15.8672 2.15828 15.9484 3.27898 16.4984 3.80148C17.0484 4.32398 18.2281 4.40117 18.6203 5.04539C19.0063 5.67922 18.4922 6.68859 18.6953 7.41297C18.8922 8.11359 19.875 8.74 19.875 9.5Z" fill="#BDDA13"/>
<path d="M13.2094 6.84591L9.64063 10.2362L7.79063 8.48021C7.59769 8.29701 7.33607 8.19411 7.06329 8.19411C6.79051 8.19411 6.52889 8.29701 6.33595 8.48021C6.14311 8.6635 6.03479 8.91204 6.03479 9.17118C6.03479 9.43033 6.14311 9.67887 6.33595 9.86216L8.93126 12.3277C9.11906 12.5059 9.37364 12.606 9.63907 12.606C9.90451 12.606 10.1591 12.5059 10.3469 12.3277L14.6625 8.22786C14.8553 8.04457 14.9637 7.79603 14.9637 7.53689C14.9637 7.27774 14.8553 7.0292 14.6625 6.84591C14.5671 6.75521 14.4539 6.68326 14.3292 6.63417C14.2045 6.58508 14.0709 6.55981 13.9359 6.55981C13.801 6.55981 13.6674 6.58508 13.5427 6.63417C13.418 6.68326 13.3048 6.75521 13.2094 6.84591Z" fill="#1E1E1E"/>
</svg>
