<svg width="11" height="11" viewBox="0 0 11 11" fill="none" xmlns="http://www.w3.org/2000/svg">
<path d="M5.5 11C8.53679 11 11 8.53679 11 5.5C11 2.46321 8.53679 0 5.5 0C2.46321 0 0 2.46321 0 5.5C0 8.53679 2.46321 11 5.5 11ZM5.10713 2.35715C5.10713 2.14107 5.28392 1.96428 5.5 1.96428C5.71608 1.96428 5.89287 2.14107 5.89287 2.35715V5.31143L7.70983 6.76501C7.87877 6.90054 7.90625 7.14803 7.77072 7.31696C7.6941 7.41321 7.58019 7.46428 7.46428 7.46428C7.37785 7.46428 7.29142 7.43677 7.21876 7.37785L5.25448 5.80644C5.16216 5.73178 5.10716 5.61983 5.10716 5.5V2.35715H5.10713Z" fill="#BDDA13"/>
</svg>
