<svg width="18" height="18" viewBox="0 0 18 18" fill="none" xmlns="http://www.w3.org/2000/svg">
<g clip-path="url(#clip0_3_18285)">
<path d="M4.65809 3.54365C5.63516 3.54365 6.42991 2.74891 6.42991 1.77183C6.42991 0.794749 5.63516 0 4.65809 0C3.68097 0 2.88647 0.794749 2.88647 1.77183C2.88647 2.74891 3.68122 3.54365 4.65809 3.54365Z" fill="#BDDA13"/>
<path d="M8.88415 9.0648L7.54237 4.39243C7.46597 3.96239 7.09727 3.65186 6.66026 3.65186H2.65633C2.21906 3.65186 1.85041 3.96239 1.77392 4.39243L0.432016 9.0648C0.419076 9.10947 0.420193 9.15504 0.433134 9.19636C0.426384 9.23943 0.422988 9.28028 0.422988 9.32138C0.422988 9.81673 0.825951 10.2198 1.32165 10.2198C1.75475 10.2198 2.12564 9.91019 2.19989 9.50233L2.77925 7.35123L1.82104 11.9946C1.779 12.1009 1.7578 12.2122 1.7578 12.3257C1.7578 12.821 2.16085 13.2241 2.65655 13.2241H2.75427V17.1018C2.75427 17.5974 3.15732 18 3.6528 18C4.14815 18 4.55125 17.5969 4.55125 17.1018V13.2241H4.76599V17.1018C4.76599 17.5974 5.16896 18 5.66444 18C6.15992 18 6.56301 17.5969 6.56301 17.1018V13.2241H6.66095C7.15643 13.2241 7.55931 12.821 7.55931 12.3257C7.55931 12.2113 7.53807 12.1002 7.49598 11.9941L6.53829 7.35101L7.11301 9.48384C7.19143 9.91019 7.56258 10.2198 7.99563 10.2198C8.49099 10.2198 8.89386 9.81673 8.89386 9.32138C8.89386 9.28053 8.89034 9.239 8.88372 9.1961C8.89601 9.15478 8.89713 9.10947 8.88415 9.0648Z" fill="#BDDA13"/>
</g>
<defs>
<clipPath id="clip0_3_18285">
<rect width="18" height="18" fill="white"/>
</clipPath>
</defs>
</svg>
