<svg width="18" height="18" viewBox="0 0 18 18" fill="none" xmlns="http://www.w3.org/2000/svg">
<g clip-path="url(#clip0_3_11556)">
<path d="M2.11328 13.6672L2.62917 15.7517C3.04529 17.2208 5.82298 18.0002 8.99791 18.0002C12.1397 18.0002 14.9874 17.2046 15.3669 15.7517L15.8828 13.667C13.685 14.6106 11.3432 15.0931 8.99762 15.0931C6.65263 15.093 4.31083 14.6106 2.11328 13.6672Z" fill="#BDDA13"/>
<path d="M11.0322 5.97176C10.5427 5.91919 10.1711 5.50625 10.1711 5.01418V5.01276C10.1711 4.38954 10.3607 3.78733 10.7158 3.27524C10.9496 2.93821 11.0865 2.52906 11.0865 2.08795C11.0866 0.934604 10.152 0 8.99865 0C7.84563 0 6.9107 0.934604 6.9107 2.08792C6.9107 2.52903 7.04769 2.93817 7.28148 3.2752C7.63536 3.78532 7.82612 4.39188 7.82612 5.01272V5.01414C7.82612 5.50738 7.45541 5.91886 6.96509 5.97172C3.82333 6.31084 1.03516 7.43245 1.03516 9.24441C1.03516 9.49563 1.7912 12.3629 1.7912 12.3629C6.3387 14.5877 11.6589 14.5881 16.2063 12.3626C16.2063 12.3626 16.9621 9.4956 16.9621 9.24441C16.9621 7.43248 14.174 6.31088 11.0322 5.97176ZM8.99865 1.13527C9.53309 1.13527 9.96642 1.56852 9.96642 2.10304C9.96642 2.63749 9.53309 3.07081 8.99865 3.07081C8.46417 3.07081 8.03088 2.63749 8.03088 2.10304C8.03091 1.56856 8.46417 1.13527 8.99865 1.13527ZM8.99865 7.01256C13.0965 7.01256 15.6128 8.31269 15.6128 9.24445C15.6128 10.1767 13.0966 11.4766 8.99865 11.4766C4.90073 11.4766 2.38446 10.1767 2.38446 9.24445C2.38446 8.31269 4.90073 7.01256 8.99865 7.01256Z" fill="#BDDA13"/>
</g>
<defs>
<clipPath id="clip0_3_11556">
<rect width="18" height="18" fill="white"/>
</clipPath>
</defs>
</svg>
