<svg width="18" height="18" viewBox="0 0 18 18" fill="none" xmlns="http://www.w3.org/2000/svg">
<g clip-path="url(#clip0_3_18285)">
<path d="M13.3419 3.54365C14.3191 3.54365 15.1138 2.74891 15.1138 1.77183C15.1138 0.794749 14.3191 0 13.3419 0C12.3649 0 11.5701 0.794749 11.5701 1.77183C11.5701 2.74891 12.3649 3.54365 13.3419 3.54365Z" fill="#BDDA13"/>
<path d="M4.65809 3.54365C5.63516 3.54365 6.42991 2.74891 6.42991 1.77183C6.42991 0.794749 5.63516 0 4.65809 0C3.68097 0 2.88647 0.794749 2.88647 1.77183C2.88647 2.74891 3.68122 3.54365 4.65809 3.54365Z" fill="#BDDA13"/>
<path d="M8.88415 9.0648L7.54237 4.39243C7.46597 3.96239 7.09727 3.65186 6.66026 3.65186H2.65633C2.21906 3.65186 1.85041 3.96239 1.77392 4.39243L0.432016 9.0648C0.419076 9.10947 0.420193 9.15504 0.433134 9.19636C0.426384 9.23943 0.422988 9.28028 0.422988 9.32138C0.422988 9.81673 0.825951 10.2198 1.32165 10.2198C1.75475 10.2198 2.12564 9.91019 2.19989 9.50233L2.77925 7.35123L1.82104 11.9946C1.779 12.1009 1.7578 12.2122 1.7578 12.3257C1.7578 12.821 2.16085 13.2241 2.65655 13.2241H2.75427V17.1018C2.75427 17.5974 3.15732 18 3.6528 18C4.14815 18 4.55125 17.5969 4.55125 17.1018V13.2241H4.76599V17.1018C4.76599 17.5974 5.16896 18 5.66444 18C6.15992 18 6.56301 17.5969 6.56301 17.1018V13.2241H6.66095C7.15643 13.2241 7.55931 12.821 7.55931 12.3257C7.55931 12.2113 7.53807 12.1002 7.49598 11.9941L6.53829 7.35101L7.11301 9.48384C7.19143 9.91019 7.56258 10.2198 7.99563 10.2198C8.49099 10.2198 8.89386 9.81673 8.89386 9.32138C8.89386 9.28053 8.89034 9.239 8.88372 9.1961C8.89601 9.15478 8.89713 9.10947 8.88415 9.0648Z" fill="#BDDA13"/>
<path d="M17.5668 9.1961C17.5776 9.16136 17.5801 9.12387 17.5729 9.08599L16.6909 4.4071C16.6201 3.96927 16.2479 3.65186 15.806 3.65186H10.8774C10.4353 3.65186 10.0633 3.96961 9.9938 4.40125L9.11053 9.08599C9.10344 9.12387 9.10576 9.16136 9.11651 9.1961C9.10967 9.239 9.10645 9.28006 9.10645 9.32138C9.10645 9.81673 9.50949 10.2198 10.0051 10.2198C10.4382 10.2198 10.809 9.91019 10.8881 9.47868L11.4447 5.99956L11.4375 17.1018C11.4375 17.5974 11.8403 18 12.3359 18C12.8315 18 13.2345 17.597 13.2345 17.1018V11.6064H13.4489V17.1018C13.4489 17.5974 13.852 18 14.3479 18C14.8432 18 15.2461 17.5969 15.2461 17.1016L15.2388 5.99956L15.7963 9.48384C15.8745 9.91019 16.2456 10.2198 16.6787 10.2198C17.1741 10.2198 17.5771 9.81673 17.5771 9.32138C17.577 9.28006 17.5738 9.23853 17.5668 9.1961Z" fill="#BDDA13"/>
</g>
<defs>
<clipPath id="clip0_3_18285">
<rect width="18" height="18" fill="white"/>
</clipPath>
</defs>
</svg>
