<svg width="18" height="18" viewBox="0 0 18 18" fill="none" xmlns="http://www.w3.org/2000/svg">
<path d="M8.50219 14.0287C7.81031 14.6924 6.46875 15.7499 4.92188 15.7499C2.66906 15.7499 0.84375 13.4999 0.84375 13.4999C1.43367 12.818 2.14033 12.2465 2.93063 11.8124C4.41 13.2918 6.82312 13.8121 8.13094 13.9921L8.50219 14.0287ZM17.1562 13.4999C17.1562 13.4999 15.3309 15.7499 13.0781 15.7499C11.5312 15.7499 10.1897 14.6924 9.49781 14.0287L9.86906 13.978C11.1769 13.798 13.59 13.2777 15.0694 11.7983C15.8608 12.2367 16.5675 12.8129 17.1562 13.4999Z" fill="#BDDA13"/>
<path d="M8.20696 13.4213C7.0004 13.2554 4.69696 12.7745 3.31884 11.3963C1.38665 9.46696 1.21509 5.71509 1.21509 5.71509C1.21509 5.71509 3.9629 5.84165 5.9654 7.08759C5.92606 7.34824 5.90632 7.61148 5.90634 7.87509C5.90634 10.1926 7.47009 12.4735 8.20696 13.4213ZM16.7851 5.71509C16.7851 5.71509 16.6135 9.46696 14.6813 11.3963C13.3032 12.7745 10.9998 13.2554 9.79321 13.4213C10.5301 12.4735 12.0938 10.1926 12.0938 7.87509C12.0939 7.61148 12.0741 7.34824 12.0348 7.08759C14.0373 5.84165 16.7851 5.71509 16.7851 5.71509Z" fill="#BDDA13"/>
<path d="M9 2.25C9 2.25 6.46875 5.085 6.46875 7.875C6.46875 10.665 9 13.5 9 13.5C9 13.5 11.5312 10.665 11.5312 7.875C11.5312 5.085 9 2.25 9 2.25Z" fill="#BDDA13"/>
</svg>
