<svg width="18" height="18" viewBox="0 0 18 18" fill="none" xmlns="http://www.w3.org/2000/svg">
<g clip-path="url(#clip0_3_18285)">
<path d="M13.3419 3.54365C14.3191 3.54365 15.1138 2.74891 15.1138 1.77183C15.1138 0.794749 14.3191 0 13.3419 0C12.3649 0 11.5701 0.794749 11.5701 1.77183C11.5701 2.74891 12.3649 3.54365 13.3419 3.54365Z" fill="#BDDA13"/>
<path d="M17.5668 9.1961C17.5776 9.16136 17.5801 9.12387 17.5729 9.08599L16.6909 4.4071C16.6201 3.96927 16.2479 3.65186 15.806 3.65186H10.8774C10.4353 3.65186 10.0633 3.96961 9.9938 4.40125L9.11053 9.08599C9.10344 9.12387 9.10576 9.16136 9.11651 9.1961C9.10967 9.239 9.10645 9.28006 9.10645 9.32138C9.10645 9.81673 9.50949 10.2198 10.0051 10.2198C10.4382 10.2198 10.809 9.91019 10.8881 9.47868L11.4447 5.99956L11.4375 17.1018C11.4375 17.5974 11.8403 18 12.3359 18C12.8315 18 13.2345 17.597 13.2345 17.1018V11.6064H13.4489V17.1018C13.4489 17.5974 13.852 18 14.3479 18C14.8432 18 15.2461 17.5969 15.2461 17.1016L15.2388 5.99956L15.7963 9.48384C15.8745 9.91019 16.2456 10.2198 16.6787 10.2198C17.1741 10.2198 17.5771 9.81673 17.5771 9.32138C17.577 9.28006 17.5738 9.23853 17.5668 9.1961Z" fill="#BDDA13"/>
</g>
<defs>
<clipPath id="clip0_3_18285">
<rect width="18" height="18" fill="white"/>
</clipPath>
</defs>
</svg>
