<svg width="27" height="26" viewBox="0 0 27 26" fill="none" xmlns="http://www.w3.org/2000/svg">
<g clip-path="url(#clip0_3_11515)">
<ellipse cx="13.3181" cy="13" rx="12.2778" ry="13" fill="#424242"/>
<path d="M13.3176 17.0254C9.68716 17.0254 6.73352 19.979 6.73352 23.6095C6.73352 23.8196 6.74383 24.0272 6.76328 24.2322C8.73085 25.3848 10.9767 26.0002 13.3176 26.0002C15.6585 26.0002 17.9044 25.3848 19.872 24.2322C19.8914 24.027 19.9017 23.8196 19.9017 23.6095C19.9017 19.979 16.9481 17.0254 13.3176 17.0254Z" fill="white"/>
<path d="M22.51 3.80758C20.0547 1.3523 16.7902 0 13.3176 0C9.84505 0 6.58058 1.35225 4.12521 3.80758C1.66993 6.26295 0.317627 9.52742 0.317627 13C0.317627 16.4724 1.66988 19.737 4.12521 22.1924C4.47226 22.5393 4.83843 22.8665 5.22198 23.1725C5.3924 19.9804 7.41766 17.273 10.2368 16.1106C8.68719 15.1003 7.6607 13.3521 7.6607 11.3682C7.6607 8.24896 10.1983 5.71132 13.3176 5.71132C16.4369 5.71132 18.9746 8.24896 18.9746 11.3682C18.9746 13.3521 17.9481 15.1003 16.3984 16.1106C19.2176 17.2729 21.2429 19.9804 21.4133 23.1725C21.7968 22.8664 22.1629 22.5392 22.51 22.1924C24.9653 19.737 26.3176 16.4724 26.3176 13C26.3176 9.52742 24.9654 6.26295 22.51 3.80758Z" fill="white"/>
<path d="M17.4498 11.3684C17.4498 9.08894 15.5956 7.23486 13.3164 7.23486C11.0371 7.23486 9.18286 9.08914 9.18286 11.3684C9.18286 13.6476 11.0371 15.5019 13.3164 15.5019C15.5956 15.5019 17.4498 13.6476 17.4498 11.3684Z" fill="white"/>
</g>
<defs>
<clipPath id="clip0_3_11515">
<rect width="26" height="26" fill="white" transform="translate(0.317627)"/>
</clipPath>
</defs>
</svg>
