<svg width="24" height="24" viewBox="0 0 24 24" fill="none" xmlns="http://www.w3.org/2000/svg">
<path d="M23.0364 6.46505C22.7771 5.50114 22.0171 4.7413 21.0533 4.48175C19.2926 4 12.2497 4 12.2497 4C12.2497 4 5.20708 4 3.44638 4.4635C2.50114 4.72278 1.72264 5.50131 1.46336 6.46505C1 8.2256 1 11.8768 1 11.8768C1 11.8768 1 15.5464 1.46336 17.2885C1.72288 18.2523 2.48261 19.0122 3.44652 19.2717C5.2256 19.7536 12.25 19.7536 12.25 19.7536C12.25 19.7536 19.2926 19.7536 21.0533 19.2901C22.0172 19.0307 22.7771 18.2708 23.0366 17.3071C23.4998 15.5464 23.4998 11.8953 23.4998 11.8953C23.4998 11.8953 23.5184 8.22557 23.0364 6.46505ZM10.0074 15.2499V8.50365L15.8639 11.8768L10.0074 15.2499Z" fill="#BDDA13"/>
</svg>
